# xmcd
#
# Track frame offsets:
# 150
# 16284
# 31656
# 42087
# 56556
# 73912
# 87303
# 100365
# 111139
# 127957
# 143923
# 158903
#
# Disc length: 2302 seconds
#
#
# Revision: 0
# Processed by: cddbd v1.5.1PL2 Copyright (c) Steve Scherf et al.
# Submitted via: FreeRIP 2.944 
#
DISCID=9c08fc0c
DTITLE=Milionário and José Rico - VIVA A VIDA
DYEAR=1988
DGENRE=Country
TTITLE0=VIVA A VIDA
TTITLE1=MINHA VOLTA
TTITLE2=A CARTA
TTITLE3=PAIXÃO DE UM HOMEM
TTITLE4=DOR DA PAIXÃO
TTITLE5=MINHA VERDADE
TTITLE6=SOZINHO NA ESTRADA
TTITLE7=PORTO ABANDONADO
TTITLE8=HOMEM TRISTE
TTITLE9=MINHA VÓZ
TTITLE10=MINHA SOLIDÃO
TTITLE11=MINHA SOMBRA
EXTD=
EXTT0=
EXTT1=
EXTT2=
EXTT3=
EXTT4=
EXTT5=
EXTT6=
EXTT7=
EXTT8=
EXTT9=
EXTT10=
EXTT11=
PLAYORDER=
